<?xml version="1.0" encoding="UTF-8"?>
<svg id="Laag_1" data-name="Laag 1" xmlns="http://www.w3.org/2000/svg" viewBox="0 0 1417.32 1417.32">
  <defs>
    <style>
      .cls-1 {
        fill: #fff;
      }
    </style>
  </defs>
  <path class="cls-1" d="M369.71,689.22c-14.32-1.04-31.35,11.65-41.45-3.45l-20.78-100.96c-2.05-10.83,2.7-18.49,13.18-21.51l216.45-39.99-41.95-18.16c-46.72,7.03-89.56-5.09-134.16-16.47-2.16-.25-3.04,1.31-4.15,2.74-5.43,7.02-13.99,29.38-21,32.26-11.41,4.69-24.05-5.06-18.98-17.45,2.81-6.87,18.09-34.28,22.43-39.97,7.59-9.96,17.24-6.67,27.67-4.87,24.38,4.21,49.07,14.44,73.71,17.6,3.92.5,23.24,2.52,24.92.17-1.99-11.25-13-15.21-18.89-24.46-27.95-43.92-5.54-128.84,44.79-148.22,60.95-23.48,126.69,39.82,148.9,91.5,2.79,6.48,9.25,29.71,11.68,32.45,5.36,6.04,11.34,1.46,16.69,1.57,7.12.15,15.4,5.03,21.23-3.12,13.32-55.87,57.79-113.49,116.16-125.82,81.31-17.17,125.8,100.23,85.91,154.39-5.93,8.05-15.6,11.02-17.09,21.72h26.63c15.78,0,52.31-14.07,70.75-17.52,9.85-1.84,20.83-5.2,28.72,3.27,2.31,2.48,22.9,38.45,23.86,41.56,3.75,12.16-7.22,21.4-18.42,16.93-10.3-4.11-19.35-34.83-25.63-35.04-27.07,4.75-54.93,16.28-82.34,18.17-14.29.98-44.04-3.57-54.46-1.18-3.62.83-11.96,7.01-16.79,9.07-7.17,3.06-14.54,6.16-22.32,7.36-.45,2.24,1.74,1.53,3.31,1.96,66.52,18.28,143.75,22.7,211.31,39.82,11.07,2.81,16.79,7.14,14.98,19.63l-21.27,102.02c-7.14,15.77-28.25,3.53-40.94,3.96v59.35h43.37c7.02,0,19.43,8.69,23.35,14.7.87,1.33,4.81,9.74,4.81,10.41v41.09c1.34,2.17,3.03,2.1,5.25,2.36,28.83,3.38,62.83-3.29,92.94-.08,7.98.85,10.46,6.2,9.21,13.71l-46.5,93.7,49.52,98.01c3.47,3.66-3.68,15.25-6.16,15.25h-174.25v120.99c0,5.81-12.09,18.59-18.54,19.5l-562.1,1.1c-7.77-.74-16.23-2.81-21.17-9.27-.82-1.07-5.41-9.25-5.41-9.81v-120.23l-2.28-2.28h-170.45c-7.9,0-7.31-11.96-5.4-17.58,5.01-14.78,19.38-34.8,26.77-49.32,7.75-15.22,14.69-31.06,22.09-46.48l-46.61-93.58c-3.2-3.35,4.29-13.71,6.19-13.71h98.92l2.28-2.28v-42.61c0-8.84,18.22-23.59,26.63-23.59h44.89v-59.35ZM510.87,330.46c-32.9,4.74-54.52,59.19-47.95,88.24.61,2.7,2.53,9.24,4.1,11.11,4.24,5.07,7.42-.42,11.82-2.02,33.03-12.07,81.51-1.62,111.41,15.77,8.69,5.06,15.84,12.52,23.7,17.45,5.4,3.38,9.36-5.15,9.93-9.92,5.76-47.99-62.03-127.97-113.01-120.63ZM815.24,330.46c-45.95,6.24-90.64,63.85-97.86,107.57-1.15,6.96-2.91,20.21,5.44,23.75,3.72,1.58,18.03-11.56,22.31-14.25,29.49-18.48,76.58-31.73,110.73-21.51,5.1,1.53,9.01,4.69,13.54,6.34,1.69.62,1.48,1.84,3.26-.31,8.63-10.42,4.84-37.92,1.53-50.23-7.68-28.58-25.5-55.9-58.95-51.36ZM597.45,484.31c-15.56-15.51-51.69-31.62-73.46-33.83-34.41-3.5-48.25,6.6-16.27,29.97,25.39,18.56,68.22,30.59,99.49,28.53,6.6-4.64-5.82-20.74-9.76-24.67ZM850.24,453.7c-4.47-4.41-25.54-3.89-32.16-3.22-21.86,2.21-61.69,19.73-76.29,36.32-3.48,3.95-12.8,16.36-9.22,21.43,1.21,1.54,2.92,1.29,4.6,1.49,24.02,2.92,79.5-15.6,98.74-30.77,4.99-3.94,20.89-18.79,14.34-25.25ZM701.27,507.92c11.61-27.74-14.05-52.54-42.14-44.43-15.95,4.6-30.35,30.59-17.51,44.38l59.66.05ZM719.67,611.53c2.22-2.14,2.29-54.68,1.64-61.62-.32-3.49-1.16-10.47-4.6-12.14-1.46-.71-15.83-2.13-18.99-2.32-17.07-1.05-44.16-1.41-60.99,0-10.17.86-15.01,1.85-16,12.92-.65,7.27-.69,61.05,1.71,63.1,19.61-2.51,36.85-7.29,57.02-6.03,13.59.84,26.53,5.9,40.19,6.09ZM580.93,542.05l-238.54,46.04c-3.99,2.13-3.27,6.7-3.11,10.53.76,18.83,9.72,42.67,13.01,61.6l2.21,2.44,238.95-45.71c1.67-1.12,1.38-2.83,1.59-4.5,1.43-11.72,1.56-52.59-.19-63.9-1.39-8.96-6.67-7.17-13.92-6.5ZM747.13,545.4v70.01l239.67,48.02c3.6-.21,3.8-3.39,4.62-6.14,3.08-10.32,12.08-52.53,11.51-61.71-.47-7.61-3.63-7.68-10.44-9.43-74.58-19.2-157.42-25.11-232.61-44.37-3.59-.96-11.64-.37-12.75,3.62ZM944.97,683.13c-73.77-12.18-146.74-29.31-220.39-42.13-20.46-3.56-41.05-8.47-61.9-8.07l-265.25,50.52c-3.49,2.5-2.12,56.93-.33,65.13h545.59l2.28-2.28v-63.16ZM329.38,1002.72h684.84l2.28-2.28v-219.15c0-.41-4.47-4.54-5.55-5.14-5.01-2.8-8.03-.09-13.4-.1-222.62-.45-445.26-.08-667.87.21-4.68,2.25-5.28,6.43-5.69,11.05-1.13,12.51.08,28.24.01,41.23-.23,42.22.48,85.44,1.65,127.71.32,11.6-1.97,30.92-.02,41.11.34,1.79,2.26,4.95,3.77,5.37ZM298.18,841.41h-74.57l39.9,76.51c3.59,7.12-1.06,13.2-4.1,19.4-12.64,25.69-27.59,50.43-40.36,76.06h79.14v-171.97ZM1119.98,841.41h-76.09v171.97h79.14l-45.45-89.03,42.4-82.94ZM594.94,1151.86v-122.51l-2.28-2.28h-187.19c-1.92,0-11.88,3.42-11.41,6.85l.78,114.88c.34.72,2.76,3.07,3.02,3.07h197.08ZM719.74,1027.07h-92.07c-.64,0-4.82,1.73-5.35,2.61-2.85,4.69-1.5,38.54-1.56,46.91l.07,75.27h98.92v-124.79ZM747.13,1028.59v123.27h195.56c3.31-2.74,3.51-5.87,3.88-9.82,2.4-26.12,2.2-77.35,0-103.62-.89-10.53-4.75-9.88-14.46-11.41l-184.97,1.59Z"/>
  <path class="cls-1" d="M556.14,964.68c-7.94-1.37-3.78-15.38-3.74-20.49.37-40.53-.6-81.08.14-121.6.95-2.83,6.86-3.72,9.69-4.01,19.96-2.04,63.72-1.7,80.4,9.38,28.82,19.14,25.51,67.47-5.16,82.79l25.3,46.25.53,5.18-2.15,2.5h-31.96c-9.25-8.1-18.09-39.18-25.89-45.64-4.08-3.38-13.6-.75-19.01-1.54v44.89l-2.28,2.28c-7.9-.94-18.39,1.29-25.87,0ZM584.29,849.01v37.29l2.28,2.28h22.83c9.91,0,19.1-10.65,19.03-20.57-.16-22.56-28.16-21.93-44.14-19Z"/>
  <path class="cls-1" d="M850.61,849.01v27.39h49.46c7.59,0,6.27,23.47,3.45,28.58-1.99-.19-5.4,1.85-6.49,1.85h-46.42v28.92h58.59c5.22,4.59,5.89,26.61-.25,28.66l-86.5.25c-4.19-.62-4.94-4.74-5.35-8.34-4.61-40,3.56-88.53-.05-129.46.07-5.61,4.87-7.74,9.93-8.33,24.23-2.81,54.04,1.91,78.88.33,8.85,2.66,7.51,30.14-1.23,30.14h-54.03Z"/>
  <path class="cls-1" d="M696.15,964.68c-.51-.14-2.69-2.37-3.02-3.07l-.08-140.05c3.08-2.37,6.93-2.74,10.65-3.05,18.81-1.53,51.25-1.45,70.12,0,6.14.47,10.36.16,11.21,7.01.47,3.79.86,18.01-.61,20.44-.98.78-3.83,3.05-4.56,3.05h-54.03v27.39h49.46c7.76,0,8.33,30.44-1.52,30.44h-45.66c-.46,0-1.17-1.93-2.28-1.52v30.44h58.59c5.71,8.71,3.81,19.38.76,28.92h-89.03Z"/>
  <path class="cls-1" d="M464.06,849.01v28.92h49.46c9.16,0,9.25,25.3,3.04,30.44h-50.22l-2.28,2.28v51.74l-2.28,2.28h-25.87c-.2,0-3.38-1.62-3.51-1.83l-1.87-12.56,2.34-127.14c2.31-3.11,5.38-4.16,9.1-4.6,11.65-1.36,65.78-1.85,75.8.36,4.49.99,6.66,3.56,7.25,7.97.66,4.96,1.52,22.14-5.4,22.14h-55.55Z"/>
</svg>