<?xml version="1.0" encoding="UTF-8"?>
<svg id="Laag_1" data-name="Laag 1" xmlns="http://www.w3.org/2000/svg" viewBox="0 0 1417.32 1417.32">
  <defs>
    <style>
      .cls-1 {
        fill: #fff;
      }
    </style>
  </defs>
  <path class="cls-1" d="M1160.32,753.33c13.62,2.63,27.2,6.17,40.59,9.82,20.61,5.62,51.15,11.96,69.92,20.05,10.24,4.42,11.23,15.56,4.2,23.71l-71.11,82.45,39.83,111.87c.95,5.76-4.32,14.35-10.18,15.59l-190.93-36.45c-19.84-6.05-16.47-26.07-14.24-42.37l-48.53-4.37c-2.87.84-28.8,36.5-33.73,42.33-48.36,57.1-110.22,107.53-175.76,143.8-11.93,6.6-50.99,27.82-62.32,27.77-10.84-.04-60.4-27.5-72.59-34.55-77.26-44.73-145.61-105.99-196.08-179.66l-50.08,4.69c1.45,18.07,6.39,35.9-15.51,42.67l-184.08,36.3c-9.86,1.45-18.08-7.75-15.73-17.35,14.55-36.04,28.5-72.53,39.23-109.92l-72.14-84.34c-5.4-9.74-4.63-17.29,5.79-22.16,21.83-10.2,66.65-19.78,91.61-26.28,6.2-1.61,12.43-3.69,18.96-3.55l-7.84-56.56c2.49-13.66,8.25-20.3,21.71-23.41,17.56-4.05,38.01-4.63,55.86-8.51-3.34-27.25-9.19-54.08-12.32-81.39-3.67-32.07-4.95-63.98-6.16-96.23-.91-24.31-4.81-60.05-1.48-83.57,1.4-9.91,10.62-18.9,19.98-21.9,33.63-10.78,79.12-15.4,115.16-24.45,75.28-18.9,147.67-46.83,217.41-80.43,17.65-8.5,39.18-26.71,59.25-20.03,21.07,7.02,53.1,27.44,75.66,37.58,64.25,28.88,132.71,52.5,201.44,68.47,29.1,6.76,70.07,10.34,96.59,19.75,7.93,2.81,16.95,12.49,17.95,20.83,2.72,22.65.89,63.04.02,86.97-.95,26.49-3.53,54.04-6.46,80.41-3.47,31.25-9.08,62.34-15.14,93.15.66,1.93,2.02,2.06,3.75,2.4,17.82,3.46,58.01,2.21,68.97,16.35,12.9,16.64-3.36,50.52-1.46,70.5ZM1077.87,413.83c-129.2-20.98-253.41-62.21-368.52-123.91-115.94,60.87-240.06,102.8-369.73,123.77,3.56,24.57.64,50.31,1.5,75.28,1.46,42.18,6.08,88.32,12.73,129.98,2.2,13.79,4.78,27.56,7.66,41.2,42.64-3.18,85.19-8.97,127.83-12.23,167.85-12.82,341.18-10.27,508.78,6.21,18.64,1.83,37.38,4.78,55.93,7.35,1.28-.23,1.53-1.18,1.94-2.23,2.35-6.07,4.78-23.64,6.07-31.18,9.43-55.03,14.71-112.89,16.03-168.57.36-15.19-.26-30.5-.22-45.67ZM1133.86,702.23c-35.46-4.08-70.77-10.07-106.26-13.96-195.34-21.4-398.47-23.25-594.1-4.66-50.08,4.76-100.08,11.8-149.75,19.33l-1.56,3.14,29.64,207.77c2.32,3.58,7.54,2.65,11.5,2.42,36.19-2.15,76.35-10.42,113.27-13.93,220.38-20.98,443.23-15.37,662.4,14.08l5.46-.85,2.64-6.66c6.78-60.08,18.02-119.74,25-179.76,1.04-8.92,2.28-17.88,1.76-26.91ZM262.07,782.86l-83.74,20.95,63.58,72.9c6.81,10.41-2.33,27.58-6.18,38.82-7.96,23.22-17.42,46.16-26.4,68.99l150.48-31.03-4.11-12.25c-29.42,1.39-66.19,21.91-74.83-19.72l-18.8-138.66ZM1206.77,984.53l-34.09-101.46,66.65-79.25-83.73-20.94-18.99,140.02c-8.96,39.44-49.47,20.28-77.19,18.21l-1.57,12.39,148.92,31.03ZM938.41,928.7c-5.9-.27-11.91.37-17.82-.02-149.42-10.02-285.37-5.87-434.42.12-1.4.06-7.88-.75-6.95,2.24,43.14,57.88,98.66,106.18,159.93,144.12,11.24,6.96,60.83,36.74,70.48,36.65,5.27-.05,33.68-16.17,40.57-19.96,65.43-35.96,132.85-89.45,178.86-148.45,1.39-1.78,10.69-13.52,9.34-14.69Z"/>
  <path class="cls-1" d="M758.8,441.29c19.79,3.37,39.7,6.51,59.59,9.43,12.97,1.91,33.91-1.47,35.98,16.89,1.77,15.76-29.03,36.05-40.07,46.1-3.43,3.12-22.51,20.11-23.03,22.09l13.17,71.28c-1.32,15.73-10.8,20.12-25.51,16.5l-69.33-34.57c-9.3,4.3-18.01,10.08-27.1,14.72-9.83,5.01-40.85,22.17-49.72,21.76-15.17-.69-18.26-9.95-17-23.34,1.19-12.73,14.63-58.28,12.13-66.4l-60.23-53.06c-8.96-10.48-5.23-27.37,8.89-29.87,4.98-.89,10,.15,14.95-.57,22.47-3.24,44.9-7.49,67.32-11.01l34.1-70.62c7.85-10.17,23.99-10.42,31.16.65l34.71,70.01ZM811.21,477.3l-70.7-10.76-30.15-60.61c-14.21,17.94-20.05,41.23-31.93,60.35l-72,11.8c.11,5.79,49.47,37.57,52.06,45.66,3.65,11.38-12.43,62.83-10.15,65.23,12.78-5.03,25-11.63,37.26-17.8,9.35-4.7,19.81-15.11,30.57-10.46l55.48,28.28c3.33,0-14.08-55.99-10.94-65.27,1.41-4.16,34.89-30.5,41.22-36.33,3.29-3.03,6.75-6.4,9.29-10.09Z"/>
  <path class="cls-1" d="M934.87,482.21c13.38-3.93,10.36,21.55,20.55,30.02,8.09,6.72,29.69,5.45,29.67,15.47-.02,11.11-22.18,9.31-29.5,15.63-8.22,7.09-7.07,27.69-14.11,30.88-14.93,6.77-14.34-23.14-22.41-30.28-7.37-6.52-30.72-6.16-31.62-16.51-.72-8.2,20.91-9.88,26.15-12.13,15.38-6.6,11.25-30.14,21.27-33.08Z"/>
  <path class="cls-1" d="M607.63,704.13c3.23,3.21,2.98,35.37,3.49,42.27,2.44,33.52,6.32,67.36,7.79,100.92.7,15.96-11.96,11.27-24.07,11.57-6.03.15-10.84,4.65-15.5-3.15l-6.23-94.58c-3.79,6.01-7.54,12.32-10.9,18.57-3.65,6.8-18.25,39.6-22.03,41.57-4.59,2.4-18.08,3.41-22.27-.31l-37.09-53.63,5.51,94.75-1.9,3.09c-11.27,1.81-23.22,4.22-34.75,2.31-3.18-2.26-5.39-62.27-6.12-71.44-1.82-23.09-5.49-46.67-6.29-69.79-.67-19.43,15.65-14.33,30.33-14.78,4.68-.14,9.8-3.37,14.74-.73,12.94,17.57,25.85,35.23,38.5,53,1.65,2.32,5.64,11.98,8.02,9.79,6.27-14.2,13.49-28.29,20.93-41.91,2.53-4.63,12.77-24.85,15.44-26.44,4.75-2.83,18.38-1.32,24.91-1.46,4.66-.1,13.16-3.93,17.49.38Z"/>
  <path class="cls-1" d="M810.82,856.96c-3.83,3.77-30.16,1.74-36.84,1.16-5.43-2.59-9.46-25-13.25-30.18-4.77-6.52-27.66-2.03-35.44-1.77-2.18.07-4.87-1.63-7.86-1.48-6.14.32-13.21,2.73-19.99,1.87-5.63,1.82-8.68,29.59-17.88,31.52-3.22.67-17.64-.77-22.76-.82-5.41-.05-8.31,3.67-12.39-3.1l64.46-152.7c3.19-1.41,31.71-1.51,36.51-.88,3.51.46,4.76,1.11,6.93,3.93l60.15,146.26c.41,1.93-.26,4.86-1.61,6.19ZM708.83,795.28h40.33l-19.41-51.2-7.69,14.02c-1.07,5.44-15.27,35.12-13.24,37.18Z"/>
  <path class="cls-1" d="M913.57,758.06c11.19-15.68,23.57-32.01,37.73-45.43,6.39.33,38.12-.19,40.75,3.43.96,1.32.96,3.83.69,5.48-.45,2.85-21.66,24.15-25.65,28.74-10.28,11.83-20.87,23.87-29.9,36.71-.44,4.84,36.58,59.28,41.81,69.3,9.3,17.82-1.79,12.32-13.46,11.92-6.54-.23-19.78,1.43-24.65-1.72l-31.98-52.59-40.33,47.28c-4.91,2.68-10.07-.6-14.73-.72-8.22-.21-31.49,3.61-24.79-10.85l54.62-64.38-48.04-74.2.22-5.03c4.41-5.09,12.72-.86,18.02-.7,7.43.23,18.36-1.46,24.61,1.77,5.44,2.81,32.44,52.87,35.07,50.99Z"/>
</svg>