<?xml version="1.0" encoding="UTF-8"?>
<svg id="Laag_1" data-name="Laag 1" xmlns="http://www.w3.org/2000/svg" viewBox="0 0 1417.32 1417.32">
  <defs>
    <style>
      .cls-1 {
        fill: #fff;
      }
    </style>
  </defs>
  <path class="cls-1" d="M999.06,300.66h86.71c10.05,0,24.87,8.98,29.51,18.06,5.16,10.12,4.27,35.12,3.56,47.23-5.53,93.51-70.13,198.76-173.18,198.99l-31.01,52.58c1.05,1.53,2.04,2.02,3.85,2.33,27.6,4.75,57.59,6.45,85.68,11,11.84,1.92,43.82,5.63,52.74,10.18,21.57,11,5.76,44.75,6.68,63.15,26.28,4.81,52.37,11.59,77.82,19.62,17.08,5.39,52.86,10.76,38.17,35.92l-62.4,77.32,38.49,110.43c-.34,8.6-9.13,14.03-17.2,13.76-42.11-9.82-84.49-19.14-126.86-27.84-19.38-3.98-43.08-5.84-61.4-10.73-19.2-5.12-17.38-23.92-14-39.37-.34-1.46-2.93-1.93-4.26-2.15-19.87-3.38-45.2-4.88-65.67-6.53-25.26-2.04-50.73-2.34-75.95-4.62v25.32c0,6.18,7.06,25.09,10.45,30.99,17.59,30.62,45.2,24.73,71.36,39.13,14.59,8.03,24.6,20.07,30.15,35.84,20.82-1.53,41.07,7.83,43.1,30.57,3.3,37.01-2.47,79.01-.2,116.56-1.07,9.2-8.88,14.7-17.64,16.12l-443.47-1.31c-7.76-2.25-12.79-9.73-13.03-17.66,2.61-36.7-3.21-77.52.01-113.7,2.07-23.23,23.18-32.52,44.36-30.07,3.84-13.97,12.13-25.49,24.27-33.28,27.46-17.62,60.73-11.3,78.49-44.28,9.29-17.25,8.66-35.38,11.01-54.2l-148.86,12.27c4.31,15.32,6.02,34.42-12.53,40.4-19.52,6.29-50.68,9.27-72.16,13.78-38.79,8.14-77.53,16.52-116.26,24.93-10.27.64-18.64-6.06-18.22-16.55l39.25-107.63-64.18-79.9c-3.5-6.01-2.16-15.8,2.47-20.76,3.19-3.42,49.15-16.86,57.49-19.25,19.23-5.51,38.77-9.87,58.15-14.75.03-19.86-17-53.43,9.79-63.11,17.15-6.2,58.79-10.32,78.84-13.23,20.57-2.99,41.43-4.51,61.93-7.91l-33.77-52.92c-105.98-3.9-168.12-109-173.39-205.67-1.55-28.37-.63-56.45,34.72-58.9,7.21-.5,16.45-.05,24.29-.24,20.13-.48,40.35.68,60.46-.15,5.44-18.33-6.97-44.38,20.93-47.36l540.25-.05c7.05-1.93,20.66,8.38,20.66,14.63v32.99ZM543.6,613.39c5.66.48,11.69.66,17.39.4,89.16-3.99,171.38-7.29,260.81-3.12,9.34.44,47.25,5.73,52.95,2.27,58.78-74.59,85.66-168.08,90.62-262.35l-.73-62.31-511.91-1.45c-1.13,57.87,1.05,116.14,15.79,172.22,14.66,55.79,39.92,108.74,75.08,154.33ZM417.43,334.42h-82.1c-2.99,2.68-4,5.93-3.9,9.9,1.84,69.87,32.36,151.37,101.84,179.14,5.55,2.22,14.44,5.51,20.23,5.89,2.37.15,2.68.34,2.14-2.14-26.01-60.66-35.85-127.05-38.2-192.78ZM1082.7,334.42h-81.34l-2.3,3.84c.97,62.85-12.32,123.11-33.02,181.83-1.04,2.94-6.81,9.3-1.49,9.28,11.97-.03,33.48-11.09,43.57-17.84,47.14-31.55,73.76-96.41,76.94-151.73.26-4.45,1.08-24.32-2.37-25.39ZM380.72,667.55l30.46,192.59,3.93.8c163.47-25.85,329.53-29.8,494.16-12.4,31.72,3.35,63.26,8.56,94.95,12.09,2.78-.96,4.42-14.15,5.13-17.92,10.54-55.74,17.01-112.42,26.65-168.34l-.33-5.96-2.34-2.25c-182.46-30.84-369.71-36.64-553.53-13.85-33.13,4.11-66.2,9.73-99.08,15.24ZM446.37,887.11c-14.87-1.05-40,10.1-52.73,1.32-12.85-8.87-13.01-25.65-15.63-39.62-7.17-38.27-11.37-77.19-18.92-115.39l-82.85,21.51,57.48,69.11c3.19,4.36,3.05,10.27,1.61,15.31l-32.36,82.78,1.63,3.08,143.48-30.7-1.73-7.4ZM1140.25,754.92l-82.86-21.5c-5.68,34.26-9.76,68.91-15.84,103.11-1.71,9.59-4.97,34.82-8.95,41.69-13.9,23.96-42.19,7.55-63.35,8.58l-2.41,7.75,147.33,29.16-33.68-91.16c.72-3.49,1.86-7.05,3.82-10.04,13.67-20.82,39.75-42.07,54.41-63.76.86-1.27,2.18-1.46,1.53-3.83ZM554.02,1001.99h308.46c-13.97-15.49-37.9-14.28-56.3-24.27-40.14-21.79-50.52-66.57-51.12-109.25l-92.03,1.6c-1.92,43.65-11.25,85.77-52.74,107.63-18.49,9.74-42.2,8.75-56.27,24.3ZM911.59,1130.9v-92.85l-402.65-3.72c-1.87.64-2.17,2-2.49,3.73-1.35,7.34.16,20.9.06,29.21-.09,6.83-.04,13.02,0,19.83.08,14.6-.19,29.22-.07,43.8h405.15Z"/>
  <path class="cls-1" d="M300.4,512.68c16.13-2.9,15.17,29.16,24.18,38.13,9.24,9.19,44.04,8.19,36.46,25.69-5.31,12.26-33.15,4.24-42.58,26.51-4.62,10.91-3.17,31.2-20.83,25.38-8.99-2.96-6.15-26.95-19.08-36.16-10.28-7.33-43.53-7.48-34.94-25.71,3.23-6.86,29.27-7.46,37.89-17.36,7.63-8.75,7.41-34.42,18.9-36.48Z"/>
  <path class="cls-1" d="M1172.02,565.05c3.01,3.66,2.73,11.29-.36,14.87-5.41,6.27-26.19,5.07-34.56,13.01-11.47,10.88-5.74,31.05-20.85,37.29-17.81-1.99-12.41-25.74-22.56-35.93-10.46-10.5-43.46-7.74-37.54-27.08,2.18-7.13,29.17-8.85,37.19-18.05,8.34-9.56,8-44.45,26-34.98,10.34,5.44,7.81,28.09,17.78,37.47,8.74,8.23,30.38,7.9,34.91,13.41Z"/>
  <path class="cls-1" d="M786.01,485.1c-1.84,3.1,11.95,60.66,12.13,71.08.24,14.02-10.23,20.18-23.19,16.92l-66.46-32.69c-19.38,7.94-37.52,21.32-56.77,29.08-7.66,3.09-12.05,6.01-20.74,3.32-7.2-2.24-11.09-9.42-11.1-16.63-.03-20.48,11.89-48.76,12.5-70.31-8.39-7.55-18.18-15.5-26.22-23.28-6.97-6.75-25.54-23.18-29.84-30.02-3.27-5.21-3.13-10.81-1.35-16.56,4.06-13.12,22.19-10.88,33.25-12.78,17.25-2.97,34.54-5.85,51.6-9.79l33.16-65.06c9.72-12.2,22.17-11.93,31.1.92,6.89,9.91,27.62,60.79,32.55,64.13,20.58,4.66,41.5,7.75,62.29,11.38,9.59,1.67,16.52-1.28,22.35,9.86,4.26,8.14,2.31,13.74-2.73,20.89-8.46,11.98-35.98,35.22-48.19,47.02-1.24,1.19-2.9,1.69-4.35,2.5ZM798.02,431.12l-60.73-10.65-29.05-53.79-27.77,53.54-62.01,10.9,42.12,38.43c1.28,1.58,2.42,4.4,2.9,6.38,3.18,13.2-8.21,43.16-8.94,58.01l53.79-27.59,54.37,26.04c1.79-2.37-9.77-47.77-7.24-58.71,1.23-5.34,16.51-15.89,21.09-20.3,7.4-7.12,14.78-14.46,21.46-22.26Z"/>
  <path class="cls-1" d="M522.96,444.55c-2.34,2.33-8.54,2.65-11.29.51-3.98-3.11-5.11-18.84-9.78-23.98-6.98-7.68-27.11-3.93-27.7-15.44-.53-10.5,19.04-8.6,26.19-15.12,8.04-7.34,5.42-26.52,16.03-26.85,11.16-.35,9.32,20.38,16.2,26.69,6.47,5.94,24.61,4.74,25.61,14.1,1.21,11.42-14.69,9.79-21.5,13.18-11.99,5.97-8.83,22.01-13.75,26.91Z"/>
  <path class="cls-1" d="M909.51,792.74c-44.12,48.77-130,23.29-135.85-43.39-9.69-110.51,164.56-108.73,153.25,4.79-1.18,11.85-9.42,29.78-17.41,38.61ZM842.16,701.6c-48.97,7.18-42.24,91.25,16.11,82.1,47.36-7.42,41.64-90.58-16.11-82.1Z"/>
  <path class="cls-1" d="M672.18,764.12c-1.14,10.19,7.98,43.5-5.41,46-6.53,1.22-27.39,1.92-29.56-5.66l-4.13-132.62c.26-1.26,1.9-3.8,2.92-4.52,4.17-2.93,32.4-1.21,40.08-1.36,20.91-.39,38.33-4.39,58,7.86,22.27,13.87,26.88,45.91,12.43,67.17-2.67,3.92-14.8,12.08-14.37,14.47,3.82,7.04,29.09,43.32,29.02,47.81-.16,9.14-29.72,4.7-36.81,4.58-5.4-5.47-24.89-43.75-29.92-43.75h-22.25ZM670.65,731.89h31.46c5.13,0,12.49-7.06,13.85-12.23,7.72-29.21-27.54-24.38-45.31-23.07v35.3Z"/>
  <path class="cls-1" d="M558.34,670.91c64.51-3.18,76.64,86.11,12.9,100.46-10.59,2.38-21.95,2.37-32.65,4.21l-1.06,1.52c.01,8.13,6.14,31.57,3.41,37.63-2.38,5.3-25.31,7.42-30.37,5.87-3.69-1.13-4.87-6.39-5.52-9.81-7.29-38.68-8.9-80.75-17.02-119.61-1.06-5.52.98-11.86,6.95-12.96,20.04-3.72,43.07-3.57,63.37-7.3ZM571.95,736.03c4.84-5.45,5.53-15.86,2.61-22.39-7.93-17.73-31.96-8.52-46.63-7.82l6.06,37.71c9.91-1.26,31.1.24,37.96-7.5Z"/>
  <path class="cls-1" d="M614.99,1066.8l183.81-.35c22.56,2.58,22.56,31.2,0,33.76l-181.12.04c-19.71-2.38-21.28-28.14-2.68-33.45Z"/>
</svg>